<svg width="120" height="100" viewBox="0 0 120 100" fill="none" xmlns="http://www.w3.org/2000/svg">
<g id="triangles" clip-path="url(#clip0_1_3)">
<g id="darkGroup">
<path id="dark1" d="M41.5 49.634C42.1667 50.0189 42.1667 50.9811 41.5 51.366L12.25 68.2535C11.5833 68.6384 10.75 68.1573 10.75 67.3875L10.75 33.6125C10.75 32.8427 11.5833 32.3616 12.25 32.7465L41.5 49.634Z" fill="#B689FF" fill-opacity="0.7"/>
<path id="dark2" d="M66.5 49.634C67.1666 50.0189 67.1666 50.9811 66.5 51.366L37.25 68.2535C36.5833 68.6384 35.75 68.1573 35.75 67.3875L35.75 33.6125C35.75 32.8427 36.5833 32.3616 37.25 32.7465L66.5 49.634Z" fill="#B689FF" fill-opacity="0.7"/>
</g>
<g id="lightGroup">
<path id="light1" d="M41.5 49.634C42.1667 50.0189 42.1667 50.9811 41.5 51.366L12.25 68.2535C11.5833 68.6384 10.75 68.1573 10.75 67.3875L10.75 33.6125C10.75 32.8427 11.5833 32.3616 12.25 32.7465L41.5 49.634Z" fill="#00D0FE" fill-opacity="0.7"/>
</g>
</g>
<defs>
<clipPath id="clip0_1_3">
<rect width="120" height="100" fill="white"/>
</clipPath>
</defs>
</svg>
